<svg version="1.1" xmlns="http://www.w3.org/2000/svg" xmlns:xlink="http://www.w3.org/1999/xlink" x="0px" y="0px"
	 viewBox="0 0 107.41 188.2" enable-background="new 0 0 107.41 188.2" xml:space="preserve">
<g id="betl1">
	<rect x="3.85" y="3.4" fill="#1ABC9C" width="39.92" height="12"/>
	<rect x="66.58" y="3.4" fill="#3498DB" width="38.02" height="12"/>
</g>
<g id="belt2">
	<rect x="66.58" y="20.4" fill="#9B59B6" width="38.02" height="12"/>
	<rect x="3.85" y="20.4" fill="#E74C3C" width="45.62" height="12"/>
</g>
<g id="betl3">
	<rect x="3.85" y="37.4" fill="#1ABC9C" width="22.81" height="12"/>
	<rect x="31.66" y="37.4" fill="#3498DB" width="22.67" height="12"/>
	<rect x="66.58" y="37.4" fill="#1ABC9C" width="38.02" height="12"/>
</g>
<g id="belt4">
	<rect x="3.75" y="54.4" fill="#3498DB" width="39.25" height="12"/>
	<rect x="48.72" y="54.4" fill="#9B59B6" width="11" height="12"/>
	<rect x="66.58" y="54.4" fill="#3498DB" width="12" height="12"/>
	<rect x="83.58" y="54.4" fill="#E74C3C" width="21.02" height="12"/>
</g>
<g id="belt5">
	<rect x="3.85" y="71.4" fill="#1ABC9C" width="57.73" height="12"/>
	<rect x="66.58" y="71.4" fill="#9B59B6" width="38.02" height="12"/>
</g>
<g id="belt6">
	<rect x="3.85" y="88.4" fill="#E74C3C" width="36.59" height="12"/>
	<rect x="46.43" y="88.4" fill="#9B59B6" width="26.16" height="12"/>
	<rect x="77.51" y="88.4" fill="#1ABC9C" width="27.09" height="12"/>
</g>
<g id="belt7">
	<rect x="3.75" y="105.4" fill="#1ABC9C" width="12" height="12"/>
	<rect x="21.15" y="105.4" fill="#9B59B6" width="19.3" height="12"/>
	<rect x="46.43" y="105.4" fill="#3498DB" width="58.18" height="12"/>
</g>
<g id="belt8">
	<rect x="3.85" y="122.4" fill="#1ABC9C" width="36.59" height="12"/>
	<rect x="86.31" y="122.4" fill="#1ABC9C" width="18.3" height="12"/>
	<rect x="62.37" y="122.4" fill="#E74C3C" width="18.3" height="12"/>
	<rect x="48.72" y="122.4" fill="#3498DB" width="7.75" height="12"/>
</g>
<g id="belt9">
	<rect x="3.85" y="139.4" fill="#E74C3C" width="24.71" height="12"/>
	<rect x="33.56" y="139.4" fill="#3498DB" width="6.88" height="12"/>
	<rect x="78.7" y="139.4" fill="#E74C3C" width="25.9" height="12"/>
	<rect x="54.22" y="139.4" fill="#9B59B6" width="19.72" height="12"/>
</g>
<g id="belt10">
	<rect x="3.85" y="156.4" fill="#9B59B6" width="36.59" height="12"/>
	<rect x="59.51" y="156.4" fill="#1ABC9C" width="45.1" height="12"/>
</g>
<g id="belt11">
	<rect x="64.08" y="173.4" fill="#E74C3C" width="40.93" height="12"/>
	<rect x="3.85" y="173.4" fill="#3498DB" width="12.86" height="12"/>
	<rect x="20.72" y="173.4" fill="#1ABC9C" width="19.73" height="12"/>
</g>
</svg>
